<?xml version="1.0" standalone="no"?><!DOCTYPE svg PUBLIC "-//W3C//DTD SVG 1.1//EN" "http://www.w3.org/Graphics/SVG/1.1/DTD/svg11.dtd"><svg width="128" height="128" viewBox="0 0 128 128" version="1.1" xmlns="http://www.w3.org/2000/svg" xmlns:xlink="http://www.w3.org/1999/xlink"><defs><style type="text/css"><![CDATA[
@font-face { font-family: ifont; src: url("//at.alicdn.com/t/font_1442373896_4754455.eot?#iefix") format("embedded-opentype"), url("//at.alicdn.com/t/font_1442373896_4754455.woff") format("woff"), url("//at.alicdn.com/t/font_1442373896_4754455.ttf") format("truetype"), url("//at.alicdn.com/t/font_1442373896_4754455.svg#ifont") format("svg"); }

]]></style></defs><g class="transform-group"><g transform="scale(0.125, 0.125)"><path d="M512 0C229.2 0 0 229.2 0 512c0 282.8 229.2 512 512 512s512-229.2 512-512C1024 229.2 794.8 0 512 0zM512 972.8C257.5 972.8 51.2 766.5 51.2 512 51.2 257.5 257.5 51.2 512 51.2S972.8 257.5 972.8 512C972.8 766.5 766.5 972.8 512 972.8zM537.6 307.2 486.4 307.2 486.4 486.4 307.2 486.4 307.2 537.6 486.4 537.6 486.4 716.8 537.6 716.8 537.6 537.6 716.8 537.6 716.8 486.4 537.6 486.4Z" fill="#fd4924"></path></g></g></svg>